<?xml version="1.0" standalone="no"?>
<!DOCTYPE svg PUBLIC "-//W3C//DTD SVG 20010904//EN"
 "http://www.w3.org/TR/2001/REC-SVG-20010904/DTD/svg10.dtd">
<svg version="1.0" xmlns="http://www.w3.org/2000/svg"
 width="1172.000000pt" height="1172.000000pt" viewBox="0 0 1172.000000 1172.000000"
 preserveAspectRatio="xMidYMid meet">

<g transform="translate(0.000000,1172.000000) scale(0.100000,-0.100000)"
fill="#000000" stroke="none">
<path d="M6960 9685 c-10 -12 -10 -18 0 -30 11 -13 10 -50 -5 -200 -10 -101
-21 -189 -25 -195 -4 -7 -31 -7 -85 0 -90 11 -109 8 -147 -28 l-27 -25 -34 74
-34 74 36 3 c20 2 44 11 54 19 21 20 23 86 2 107 -8 8 -73 44 -143 80 -126 63
-130 65 -229 72 -97 6 -101 6 -116 -16 -13 -19 -15 -39 -10 -104 3 -47 11 -87
19 -96 8 -8 35 -17 61 -20 l48 -5 6 -80 c4 -44 9 -115 12 -158 l5 -77 -31 -18
c-18 -9 -43 -19 -57 -22 -20 -4 -26 -12 -28 -39 -2 -22 -10 -35 -22 -38 -25
-7 -32 -29 -17 -53 9 -16 9 -24 -1 -40 -17 -28 -15 -43 8 -58 14 -9 19 -21 18
-44 -2 -25 1 -33 17 -36 29 -6 45 -22 45 -44 0 -17 5 -20 29 -15 32 7 79 -17
51 -26 -8 -3 -71 -8 -140 -12 -422 -20 -887 -152 -1330 -376 -206 -104 -339
-186 -527 -326 -130 -95 -301 -244 -241 -209 342 202 579 313 869 410 873 290
1686 168 2383 -358 61 -46 166 -136 232 -200 l122 -116 63 41 c35 23 66 43 68
45 2 2 -11 25 -28 52 -17 27 -31 51 -31 54 0 3 29 29 64 59 l64 53 -48 71 -47
70 63 50 c36 28 68 51 72 52 4 1 36 -36 72 -83 36 -47 72 -95 82 -107 17 -22
16 -23 142 84 5 4 -1 24 -14 43 l-22 36 73 68 73 68 -96 52 c-492 265 -1099
444 -1580 467 -168 8 -193 12 -178 31 7 8 9 14 5 14 -20 0 20 29 43 32 19 2
27 9 28 23 1 33 15 65 27 65 7 0 138 -14 292 -30 154 -16 283 -30 287 -30 12
0 26 -57 21 -83 -4 -22 -2 -27 14 -27 11 0 28 -9 38 -20 10 -11 15 -20 10 -20
-4 0 -2 -7 5 -15 8 -9 22 -12 40 -8 22 4 32 0 42 -16 15 -25 31 -27 49 -5 10
12 24 15 56 10 39 -5 45 -3 55 19 10 23 21 30 42 26 15 -3 37 22 31 36 -7 19
12 53 30 53 18 0 19 23 3 50 -10 15 -9 22 5 38 19 20 14 52 -8 52 -7 0 -15 8
-17 18 -4 13 11 31 50 63 88 70 92 89 24 135 -34 23 -171 41 -198 26 -9 -5
-26 -26 -38 -48 -38 -68 -53 -62 -226 82 -124 103 -159 127 -191 131 -22 3
-42 9 -44 13 -3 5 4 93 16 196 15 141 25 194 37 207 16 18 16 20 -3 33 -25 18
-69 18 -85 -1z m-430 -316 c8 -4 34 -49 57 -101 l42 -93 -56 -53 c-41 -40 -61
-52 -77 -48 -11 2 -37 8 -58 11 l-36 7 -6 96 c-4 54 -9 120 -11 149 l-5 52 67
-6 c38 -3 75 -9 83 -14z m488 -238 c31 -9 128 -87 145 -118 13 -23 -1 -63 -26
-72 -30 -11 -243 13 -263 30 -12 10 -15 27 -12 75 2 34 10 69 17 78 15 18 86
22 139 7z m640 -123 c12 -6 22 -14 22 -18 0 -3 -22 -22 -49 -42 -40 -31 -51
-35 -61 -23 -6 7 -26 21 -45 30 -34 16 -35 16 -20 45 14 28 17 28 72 24 32 -3
68 -10 81 -16z m-1178 -55 c22 -20 33 -40 37 -70 5 -39 2 -46 -30 -78 -25 -25
-44 -35 -67 -35 -65 0 -110 43 -110 105 0 92 102 138 170 78z m1016 -114 c54
-56 29 -149 -45 -169 -132 -35 -191 153 -61 196 44 15 73 7 106 -27z m-1011
-179 c4 -6 -9 -10 -32 -9 -30 0 -34 2 -18 9 27 12 43 12 50 0z"/>
<path d="M6377 8912 c-24 -27 -21 -59 8 -78 45 -29 95 9 76 59 -15 39 -57 49
-84 19z"/>
<path d="M7380 8801 c-23 -44 -5 -81 40 -81 14 0 31 5 38 12 7 7 12 24 12 38
0 14 -5 31 -12 38 -19 19 -66 15 -78 -7z"/>
<path d="M3780 9205 l-33 -34 -23 24 c-28 30 -48 31 -75 4 -14 -14 -19 -28
-15 -43 5 -22 4 -23 -44 -18 -53 5 -38 13 -228 -125 -18 -14 -30 -28 -27 -33
3 -5 77 16 166 45 159 54 160 54 168 32 8 -21 -7 -27 -428 -168 -406 -136
-437 -145 -445 -128 -5 11 -7 21 -5 23 2 2 69 25 149 51 203 67 208 75 40 75
l-134 0 -37 -36 -37 -36 -17 26 c-30 45 -95 23 -95 -33 0 -21 -4 -22 -49 -20
-44 2 -55 -1 -93 -32 -24 -20 -69 -52 -100 -72 -59 -37 -73 -57 -40 -57 9 0
82 23 161 50 79 28 145 49 146 48 2 -2 10 -20 18 -41 9 -20 23 -40 31 -43 9
-3 89 19 179 49 l164 54 11 -30 c11 -28 9 -33 -24 -70 -63 -69 -96 -155 -102
-261 -5 -102 9 -170 37 -186 32 -17 46 11 32 64 -27 110 0 241 71 337 14 19
26 25 43 21 29 -5 299 83 315 104 19 21 41 17 118 -21 82 -42 146 -107 185
-190 27 -56 45 -67 67 -39 11 13 8 27 -21 86 -56 116 -183 216 -299 236 -36 6
-48 13 -59 36 -7 15 -9 31 -5 36 5 4 74 29 154 55 80 26 154 56 164 66 18 16
18 22 7 59 -7 23 -11 43 -9 45 2 1 74 26 161 54 86 29 157 57 157 62 0 5 -59
9 -133 9 l-133 0 -34 -35z"/>
<path d="M3890 8976 c0 -3 36 -105 80 -227 44 -122 80 -230 80 -239 0 -23 -37
-60 -60 -60 -21 0 -50 25 -50 44 0 8 7 19 15 26 17 14 20 40 5 40 -5 0 -19 -9
-30 -20 -45 -45 -8 -120 59 -120 43 0 91 46 91 88 0 47 -155 466 -174 470 -9
2 -16 1 -16 -2z"/>
<path d="M3960 8948 c0 -7 40 -119 88 -248 79 -213 90 -236 121 -257 50 -34
96 -30 137 11 26 26 34 42 34 70 0 78 -94 117 -140 59 -31 -40 -12 -103 31
-103 23 0 24 13 4 30 -25 21 -19 59 10 66 32 8 65 -19 65 -53 0 -59 -95 -87
-137 -40 -11 12 -57 124 -103 250 -53 145 -88 227 -96 227 -8 0 -14 -6 -14
-12z"/>
<path d="M4030 8925 c0 -20 89 -265 106 -292 26 -41 84 -24 84 24 0 28 -20 30
-27 3 -10 -40 -28 -12 -79 121 -27 74 -54 140 -58 147 -10 17 -26 15 -26 -3z"/>
<path d="M2604 8553 c68 -229 126 -437 126 -456 0 -31 -44 -69 -68 -60 -47 17
-56 52 -20 77 17 12 20 18 10 28 -9 9 -17 6 -37 -12 -35 -33 -33 -72 6 -104
35 -30 49 -32 89 -11 67 34 65 66 -14 335 -48 165 -67 216 -80 218 -13 3 -16
-1 -12 -15z"/>
<path d="M2670 8533 c0 -24 129 -451 146 -484 13 -27 68 -59 99 -59 31 0 82
31 94 56 39 87 -42 171 -117 118 -16 -11 -22 -25 -22 -53 0 -40 14 -61 42 -61
22 0 23 13 3 30 -28 24 -11 70 25 70 24 0 50 -32 50 -62 0 -34 -30 -58 -72
-58 -64 0 -72 16 -148 268 -38 128 -72 237 -75 242 -10 16 -25 11 -25 -7z"/>
<path d="M2740 8502 c0 -19 61 -231 82 -284 12 -32 39 -43 66 -29 20 10 35 45
24 55 -12 13 -30 5 -36 -16 -9 -37 -22 -12 -68 141 -40 131 -68 186 -68 133z"/>
<path d="M4098 8444 c-4 -3 2 -31 13 -61 20 -60 13 -93 -20 -93 -24 0 -35 28
-20 47 9 11 9 17 0 26 -10 9 -15 8 -27 -7 -20 -27 -18 -60 5 -80 27 -24 70
-17 94 16 l21 28 -20 62 c-18 58 -32 76 -46 62z"/>
<path d="M5746 8054 c-332 -66 -551 -397 -481 -729 77 -362 450 -578 798 -461
205 69 353 229 407 442 71 276 -65 566 -325 695 -133 65 -256 82 -399 53z
m475 -286 c89 -92 129 -200 129 -342 0 -196 -123 -367 -312 -433 -100 -35
-227 -36 -313 -3 -117 45 -201 115 -254 211 l-24 44 54 -51 c84 -79 137 -105
255 -124 160 -26 343 58 434 200 107 167 89 401 -44 549 l-21 24 24 -13 c14
-7 46 -35 72 -62z m-553 -43 c58 -67 3 -175 -88 -175 -49 0 -100 55 -100 108
0 99 121 142 188 67z"/>
<path d="M2770 8018 c1 -7 7 -35 14 -63 19 -69 -1 -103 -44 -75 -12 7 -12 12
0 34 16 31 9 42 -19 26 -44 -23 -15 -100 38 -100 26 0 71 42 71 66 0 23 -22
96 -33 112 -5 6 -13 12 -18 12 -5 0 -9 -6 -9 -12z"/>
<path d="M8419 7897 l-66 -52 49 -65 c27 -36 53 -66 57 -68 4 -1 37 20 74 48
l67 51 -52 69 c-29 39 -55 70 -58 70 -3 -1 -35 -24 -71 -53z"/>
<path d="M8368 7649 l-67 -50 52 -70 c28 -38 54 -69 57 -69 3 0 35 23 73 51
58 44 65 53 55 68 -55 73 -93 121 -98 121 -3 0 -35 -23 -72 -51z"/>
<path d="M7940 7617 c-36 -27 -64 -55 -64 -62 1 -7 20 -37 43 -67 22 -30 41
-60 41 -65 0 -6 -27 -31 -60 -55 l-60 -45 46 -61 c25 -34 49 -62 53 -62 6 0
104 69 119 85 5 5 -7 24 -65 101 l-24 32 71 52 c38 28 70 53 70 54 0 1 -24 34
-53 73 l-52 70 -65 -50z"/>
<path d="M8632 7614 c-34 -25 -62 -50 -62 -55 0 -7 78 -120 95 -137 5 -6 131
92 133 103 3 12 -86 135 -97 135 -4 0 -35 -21 -69 -46z"/>
<path d="M3705 7604 c-33 -25 -61 -48 -63 -53 -1 -4 18 -33 43 -65 25 -32 45
-59 45 -60 0 -1 -31 -26 -69 -55 l-70 -55 30 -40 c16 -23 40 -54 53 -70 l23
-30 67 49 c36 27 66 53 66 58 0 5 -20 35 -45 67 -25 32 -45 63 -45 68 0 5 27
30 60 56 l61 47 -47 62 c-26 34 -48 63 -48 64 -1 1 -28 -19 -61 -43z"/>
<path d="M3308 7554 l-47 -35 37 -48 37 -48 47 34 46 34 33 -45 c18 -26 37
-43 43 -39 6 4 28 20 48 36 l37 29 -36 48 -36 49 -46 -35 -45 -35 -18 25 c-52
71 -48 69 -100 30z"/>
<path d="M8158 7404 l-47 -35 36 -49 36 -49 36 28 c57 44 57 44 91 -3 l32 -45
48 36 48 36 -35 48 -36 48 -46 -35 c-51 -39 -41 -42 -96 29 l-20 27 -47 -36z"/>
<path d="M2959 7367 l-66 -52 49 -65 c27 -36 53 -66 57 -68 4 -1 37 20 74 48
l67 51 -52 69 c-29 39 -55 70 -58 70 -3 -1 -35 -24 -71 -53z"/>
<path d="M3218 7329 l-67 -51 51 -66 c27 -37 52 -69 54 -71 2 -2 35 20 74 49
61 45 68 54 57 69 -54 74 -92 121 -97 121 -3 0 -35 -23 -72 -51z"/>
<path d="M3924 7348 c-88 -54 -87 -53 -53 -108 16 -26 29 -49 29 -52 0 -3 -29
-29 -64 -59 l-65 -53 44 -62 c24 -34 45 -66 47 -72 2 -5 -27 -33 -64 -61 l-67
-51 -82 105 c-52 67 -86 102 -94 97 -29 -17 -125 -97 -125 -104 0 -4 11 -19
24 -34 l23 -28 -76 -72 -76 -72 225 -111 c233 -114 296 -140 540 -222 809
-275 1650 -256 2420 53 345 138 648 315 930 543 175 142 183 156 34 70 -398
-233 -842 -402 -1221 -464 -530 -87 -1003 -25 -1463 191 -254 119 -458 261
-696 484 l-121 113 -49 -31z"/>
<path d="M3172 7084 c-34 -25 -62 -50 -62 -55 0 -7 78 -120 95 -137 5 -6 131
92 133 103 3 12 -86 135 -97 135 -4 0 -35 -21 -69 -46z"/>
<path d="M4190 3985 l0 -685 125 0 125 0 0 685 0 685 -125 0 -125 0 0 -685z"/>
<path d="M4805 4661 c-50 -12 -89 -37 -132 -84 -69 -75 -68 -66 -68 -602 l0
-480 31 -55 c35 -62 96 -114 152 -130 23 -6 246 -10 610 -10 l572 0 0 125 0
125 -555 0 -555 0 0 435 0 435 555 0 555 0 0 125 0 125 -567 -1 c-313 -1 -581
-4 -598 -8z"/>
<path d="M6167 4663 c-12 -11 -8 -1107 4 -1163 14 -64 60 -125 124 -165 l48
-30 501 0 c498 0 501 0 542 22 54 29 117 101 132 151 9 28 12 203 12 616 l0
576 -125 0 -125 0 -2 -557 -3 -558 -430 0 -430 0 -3 558 -2 557 -118 0 c-65 0
-122 -3 -125 -7z"/>
</g>
</svg>
